<svg width="106" height="110" viewBox="0 0 106 110" fill="none" xmlns="http://www.w3.org/2000/svg">
<g style="mix-blend-mode:hard-light" filter="url(#filter0_ddi_179_732)">
<path fill-rule="evenodd" clip-rule="evenodd" d="M61.9296 11.0003C63.0654 11.0003 64.1993 11.162 65.2776 11.5272C71.9209 13.7074 74.3156 21.0657 72.3157 27.4974C71.1809 30.784 69.3278 33.784 66.8995 36.235C63.4235 39.632 59.6094 42.648 55.5035 45.246L55.0541 45.521L54.5857 45.228C50.4656 42.648 46.6299 39.632 43.1217 36.217C40.7097 33.766 38.854 30.784 37.702 27.4974C35.668 21.0657 38.062 13.7074 44.7778 11.489C45.2997 11.3073 45.8379 11.1802 46.3779 11.1093H46.5939C47.0996 11.0348 47.6018 11.0003 48.1058 11.0003H48.3039C49.4378 11.0348 50.5357 11.2347 51.5996 11.5999H51.7058C51.7778 11.6344 51.8317 11.6725 51.8677 11.707C52.2655 11.836 52.6417 11.9814 53.0017 12.1813L53.6857 12.4901C53.851 12.5791 54.0365 12.715 54.1968 12.8325C54.2984 12.907 54.3899 12.974 54.4597 13.017C54.4891 13.0345 54.5189 13.0521 54.549 13.0698C54.7034 13.1608 54.8637 13.2555 54.9996 13.3604C56.9994 11.8179 59.4278 10.9821 61.9296 11.0003ZM66.7179 24.0817C67.456 24.0617 68.0859 23.464 68.1394 22.6991V22.4829C68.193 19.9374 66.6654 17.6318 64.3411 16.7416C63.6031 16.4854 62.7936 16.8869 62.5238 17.65C62.2718 18.4131 62.6676 19.2488 63.4235 19.5196C64.5772 19.9556 65.349 21.102 65.349 22.372V22.4284C65.3153 22.8444 65.4393 23.2459 65.6912 23.5548C65.9432 23.8637 66.3211 24.0436 66.7179 24.0817Z" stroke="#FF0000" stroke-opacity="0.2" stroke-width="4.438"/>
</g>
<defs>
<filter id="filter0_ddi_179_732" x="0.300293" y="0.821705" width="109.399" height="108.331" filterUnits="userSpaceOnUse" color-interpolation-filters="sRGB">
<feFlood flood-opacity="0" result="BackgroundImageFix"/>
<feColorMatrix in="SourceAlpha" type="matrix" values="0 0 0 0 0 0 0 0 0 0 0 0 0 0 0 0 0 0 127 0" result="hardAlpha"/>
<feOffset dy="17.2453"/>
<feGaussianBlur stdDeviation="6.63282"/>
<feColorMatrix type="matrix" values="0 0 0 0 0.261765 0 0 0 0 0.0382353 0 0 0 0 0.102941 0 0 0 0.7 0"/>
<feBlend mode="multiply" in2="BackgroundImageFix" result="effect1_dropShadow_179_732"/>
<feColorMatrix in="SourceAlpha" type="matrix" values="0 0 0 0 0 0 0 0 0 0 0 0 0 0 0 0 0 0 127 0" result="hardAlpha"/>
<feOffset dy="26.5313"/>
<feGaussianBlur stdDeviation="17.2453"/>
<feColorMatrix type="matrix" values="0 0 0 0 0.523529 0 0 0 0 0.0764706 0 0 0 0 0.205882 0 0 0 1 0"/>
<feBlend mode="color-dodge" in2="effect1_dropShadow_179_732" result="effect2_dropShadow_179_732"/>
<feBlend mode="normal" in="SourceGraphic" in2="effect2_dropShadow_179_732" result="shape"/>
<feColorMatrix in="SourceAlpha" type="matrix" values="0 0 0 0 0 0 0 0 0 0 0 0 0 0 0 0 0 0 127 0" result="hardAlpha"/>
<feOffset dx="-1.72453" dy="3.44906"/>
<feGaussianBlur stdDeviation="0.862266"/>
<feComposite in2="hardAlpha" operator="arithmetic" k2="-1" k3="1"/>
<feColorMatrix type="matrix" values="0 0 0 0 1 0 0 0 0 1 0 0 0 0 1 0 0 0 0.5 0"/>
<feBlend mode="normal" in2="shape" result="effect3_innerShadow_179_732"/>
</filter>
</defs>
</svg>
